# xmcd
#
# Track frame offsets:
#	150
#	29347
#	48152
#	70731
#	95135
#	111683
#	131197
#	153578
#	169047
#	194054
#	215309
#
# Disc length: 3139 seconds
#
# Revision: 1
# Processed by: cddbd v1.5.1PL2 Copyright (c) Steve Scherf et al.
# Submitted via: audiograbber 1.83.01
#
DISCID=a70c410b
DTITLE=Me and My Uncle - Papas Tapas, 25. Feb. 2003 Vienna - CD1
DYEAR=2003
DGENRE=Blues
TTITLE0=Red House
TTITLE1=Love Sick
TTITLE2=Back Water Blues
TTITLE3=Crossroad
TTITLE4=Key to the Highway
TTITLE5=Midnight Blues
TTITLE6=I Can't Help Myself
TTITLE7=Mojo Working
TTITLE8=Going to Brownsville
TTITLE9=Movin On
TTITLE10=Mercury Blues
EXTD=
EXTT0=
EXTT1=
EXTT2=
EXTT3=
EXTT4=
EXTT5=
EXTT6=
EXTT7=
EXTT8=
EXTT9=
EXTT10=
PLAYORDER=
